<svg xmlns="http://www.w3.org/2000/svg" width="2400" height="1900" viewBox="0 0 2400 1900"><rect width="100%" height="100%" fill="#DDDDDD"/><path fill="#999999" d="M553.72 1012.37h46.93q5.06 0 8.03 2.84 2.97 2.85 2.97 7.53v18.72H486.16v-10.37q0-3.17 1.33-6.64 1.33-3.48 4.24-6.27l55.53-55.66q6.96-7.08 12.46-13.53 5.51-6.45 9.18-12.78 3.66-6.32 5.63-12.84 1.96-6.51 1.96-13.72 0-6.58-1.9-11.58-1.9-4.99-5.38-8.41t-8.35-5.12q-4.87-1.71-10.94-1.71-5.57 0-10.31 1.58t-8.41 4.43q-3.67 2.84-6.2 6.64-2.53 3.79-3.79 8.35-2.16 5.82-5.57 7.71-3.42 1.9-9.87.89l-16.44-2.91q1.89-13.16 7.33-23.09t13.6-16.57q8.16-6.64 18.73-9.99 10.56-3.35 22.7-3.35 12.65 0 23.15 3.73 10.5 3.73 17.96 10.56 7.47 6.83 11.64 16.45 4.18 9.61 4.18 21.38 0 10.12-2.98 18.72-2.97 8.6-7.97 16.44-4.99 7.85-11.7 15.18-6.7 7.34-14.04 14.93l-41.24 42.12q5.95-1.77 11.83-2.72 5.88-.94 11.2-.94Zm103.98-39.85h55.66v-59.84q0-8.47 1.14-18.72l-56.8 78.56Zm82.86 0h23.02v18.09q0 2.53-1.65 4.36-1.64 1.84-4.68 1.84h-16.69v44.65h-27.2v-44.65h-77.17q-3.16 0-5.56-1.97-2.41-1.96-3.04-4.87l-3.29-15.81 86.66-115.75h29.6v114.11ZM910.45 950q0 23.91-5.13 41.56-5.12 17.64-14.17 29.15-9.04 11.52-21.37 17.14-12.34 5.63-26.63 5.63-14.3 0-26.5-5.63-12.21-5.62-21.19-17.14-8.98-11.51-14.04-29.15-5.06-17.65-5.06-41.56 0-24.03 5.06-41.62 5.06-17.58 14.04-29.09 8.98-11.51 21.19-17.14 12.2-5.63 26.5-5.63 14.29 0 26.63 5.63 12.33 5.63 21.37 17.14 9.05 11.51 14.17 29.09 5.13 17.59 5.13 41.62Zm-32.26 0q0-19.86-2.91-32.89-2.91-13.03-7.78-20.75-4.87-7.71-11.2-10.81-6.32-3.1-13.15-3.1-6.71 0-12.97 3.1-6.26 3.1-11.07 10.81-4.8 7.72-7.65 20.75-2.85 13.03-2.85 32.89t2.85 32.89q2.85 13.03 7.65 20.75 4.81 7.71 11.07 10.81 6.26 3.1 12.97 3.1 6.83 0 13.15-3.1 6.33-3.1 11.2-10.81 4.87-7.72 7.78-20.75 2.91-13.03 2.91-32.89Zm179 0q0 23.91-5.13 41.56-5.12 17.64-14.17 29.15-9.04 11.52-21.37 17.14-12.34 5.63-26.63 5.63-14.3 0-26.5-5.63-12.21-5.62-21.19-17.14-8.98-11.51-14.04-29.15-5.06-17.65-5.06-41.56 0-24.03 5.06-41.62 5.06-17.58 14.04-29.09 8.98-11.51 21.19-17.14 12.2-5.63 26.5-5.63 14.29 0 26.63 5.63 12.33 5.63 21.37 17.14 9.05 11.51 14.17 29.09 5.13 17.59 5.13 41.62Zm-32.26 0q0-19.86-2.91-32.89-2.91-13.03-7.78-20.75-4.87-7.71-11.2-10.81-6.32-3.1-13.15-3.1-6.71 0-12.97 3.1-6.26 3.1-11.07 10.81-4.8 7.72-7.65 20.75-2.85 13.03-2.85 32.89t2.85 32.89q2.85 13.03 7.65 20.75 4.81 7.71 11.07 10.81 6.26 3.1 12.97 3.1 6.83 0 13.15-3.1 6.33-3.1 11.2-10.81 4.87-7.72 7.78-20.75 2.91-13.03 2.91-32.89Zm233.14 49.59-16.57 16.32-42.89-42.89-43.26 43.14-16.57-16.32 43.26-43.39-41.24-41.24 16.45-16.44 41.24 41.24 40.98-40.99 16.7 16.45-41.11 41.11 43.01 43.01Zm173.18 18.47h32.89v23.4h-101.2v-23.4H1400V911.42q0-6.33.38-13.03l-26.31 22.01q-2.28 1.77-4.49 2.21-2.22.45-4.18.07-1.96-.38-3.48-1.33-1.51-.95-2.27-2.09l-9.87-13.53 55.79-47.44h25.68v159.77Zm90.44-104.62q0 15.31 7.91 23.34t22.45 8.03q7.59 0 13.54-2.4 5.94-2.4 9.99-6.58 4.05-4.17 6.14-9.86 2.09-5.7 2.09-12.28 0-7.46-2.28-13.34t-6.45-9.93q-4.18-4.05-9.93-6.2-5.76-2.15-12.59-2.15-7.08 0-12.78 2.34-5.69 2.34-9.74 6.52-4.05 4.17-6.2 9.93-2.15 5.75-2.15 12.58Zm-15.3 128.02 56.8-70.97q2.15-2.65 4.04-5.18 1.9-2.53 3.67-5.06-6.32 4.04-13.91 6.13t-15.94 2.09q-9.49 0-18.6-3.29-9.11-3.29-16.19-9.93-7.08-6.64-11.45-16.44-4.36-9.81-4.36-22.96 0-12.27 4.55-23.03 4.56-10.75 12.78-18.85 8.22-8.09 19.73-12.77t25.43-4.68q14.04 0 25.24 4.42 11.19 4.43 19.1 12.4 7.9 7.97 12.14 19.1 4.24 11.14 4.24 24.42 0 8.47-1.46 16.06-1.45 7.59-4.11 14.61-2.65 7.02-6.45 13.73-3.79 6.7-8.47 13.28l-41.88 59.71q-2.15 3.04-6.45 5.12-4.3 2.09-9.74 2.09h-28.71ZM1767.1 950q0 23.91-5.12 41.56-5.12 17.64-14.17 29.15-9.04 11.52-21.38 17.14-12.33 5.63-26.62 5.63-14.3 0-26.51-5.63-12.2-5.62-21.18-17.14-8.99-11.51-14.05-29.15-5.06-17.65-5.06-41.56 0-24.03 5.06-41.62 5.06-17.58 14.05-29.09 8.98-11.51 21.18-17.14 12.21-5.63 26.51-5.63 14.29 0 26.62 5.63 12.34 5.63 21.38 17.14 9.05 11.51 14.17 29.09 5.12 17.59 5.12 41.62Zm-32.25 0q0-19.86-2.91-32.89-2.91-13.03-7.78-20.75-4.87-7.71-11.2-10.81-6.32-3.1-13.15-3.1-6.71 0-12.97 3.1-6.26 3.1-11.07 10.81-4.81 7.72-7.65 20.75-2.85 13.03-2.85 32.89t2.85 32.89q2.84 13.03 7.65 20.75 4.81 7.71 11.07 10.81 6.26 3.1 12.97 3.1 6.83 0 13.15-3.1 6.33-3.1 11.2-10.81 4.87-7.72 7.78-20.75 2.91-13.03 2.91-32.89Zm178.99 0q0 23.91-5.12 41.56-5.12 17.64-14.17 29.15-9.04 11.52-21.38 17.14-12.33 5.63-26.62 5.63-14.3 0-26.51-5.63-12.2-5.62-21.18-17.14-8.99-11.51-14.05-29.15-5.06-17.65-5.06-41.56 0-24.03 5.06-41.62 5.06-17.58 14.05-29.09 8.98-11.51 21.18-17.14 12.21-5.63 26.51-5.63 14.29 0 26.62 5.63 12.34 5.63 21.38 17.14 9.05 11.51 14.17 29.09 5.12 17.59 5.12 41.62Zm-32.25 0q0-19.86-2.91-32.89-2.91-13.03-7.78-20.75-4.87-7.71-11.2-10.81-6.32-3.1-13.15-3.1-6.71 0-12.97 3.1-6.26 3.1-11.07 10.81-4.81 7.72-7.65 20.75-2.85 13.03-2.85 32.89t2.85 32.89q2.84 13.03 7.65 20.75 4.81 7.71 11.07 10.81 6.26 3.1 12.97 3.1 6.83 0 13.15-3.1 6.33-3.1 11.2-10.81 4.87-7.72 7.78-20.75 2.91-13.03 2.91-32.89Z"/></svg>